<svg id="Layer_1" data-name="Layer 1" xmlns="http://www.w3.org/2000/svg" xmlns:xlink="http://www.w3.org/1999/xlink" viewBox="0 0 304.23 269.96"><defs><style>.cls-1{fill:url(#linear-gradient);}.cls-2{fill:#a43176;}.cls-3{fill:url(#linear-gradient-2);}.cls-4{fill:url(#radial-gradient);}.cls-5{fill:#fff;}.cls-6{fill:#7c1d58;}.cls-7{fill:#199d62;}</style><linearGradient id="linear-gradient" x1="113.44" y1="419.3" x2="246.57" y2="419.3" gradientUnits="userSpaceOnUse"><stop offset="0" stop-color="#eb0d8c"/><stop offset="0.11" stop-color="#db1183"/><stop offset="0.32" stop-color="#c01876"/><stop offset="0.54" stop-color="#ad1c6c"/><stop offset="0.76" stop-color="#a21f66"/><stop offset="1" stop-color="#9e2064"/></linearGradient><linearGradient id="linear-gradient-2" x1="460.88" y1="419.3" x2="292.55" y2="419.3" xlink:href="#linear-gradient"/><radialGradient id="radial-gradient" cx="293.8" cy="415.09" r="76.64" xlink:href="#linear-gradient"/></defs><path class="cls-1" d="M146,447.72a122.62,122.62,0,0,0,14.92,33.68c1.69,2.7,10.82,16.25,24.68,18.31a23.11,23.11,0,0,0,5.57.16,25.12,25.12,0,0,0,8.55-2.42H221c-8.77-19.88-12.16-56.13-12.19-79.89,0-26.35,3.68-58.91,10-78.93L187.38,342A25.74,25.74,0,0,0,170,342c-11.09,4.21-19.24,16.72-24.22,37.16C140,403,140.06,426,146,447.72Zm2.52-67.87c3.79-15.56,9.38-26.24,16.65-31.88-8.88,8-11.57,21.07-11.57,21.07,5.94-14.54,11.58-18.13,11.58-18.13a41.17,41.17,0,0,0-8.23,13.95,49.48,49.48,0,0,1,12-15.89h0c-8.68,9.17-22.87,30.14-20,67.46,2.61,34,15.43,56.73,25,69.3-4.44-4.24-10.12-11.56-15.09-23.89,0,0,2.89,11.06,12.56,22.88a41.3,41.3,0,0,1-10.14-13.58s4,9.67,11.07,16.74c0,0-9.58-8.09-13.49-20.09A53.09,53.09,0,0,0,174.1,491.7a46.3,46.3,0,0,1-10.8-11.77A120,120,0,0,1,148.7,447C142.9,425.75,142.83,403.16,148.51,379.85Z" transform="translate(-141.49 -280.6)"/><path class="cls-2" d="M228.85,323.85c3.41-4.25,7.06-6.19,10.83-5.76s6.83,3.32,8.67,5.8a14,14,0,0,0-3.33,3c-1.39-2-3.51-4.24-5.88-4.51-2.08-.23-4.34,1.16-6.72,4.12-9.67,12-16.12,56.86-16.09,91.2,0,34.52,6.34,77,17.94,87.76,2,1.88,4.92,4,7.22,3.28,1.85-.55,3.2-2.78,4-4.81a13.32,13.32,0,0,0,3.68,2.74c-1.23,2.51-3.22,5.21-6.36,6.16a8.3,8.3,0,0,1-2.32.34c-2.92,0-6.08-1.55-9.4-4.64-14.1-13.07-19.27-61.47-19.3-90.82C211.8,382.77,218.29,337,228.85,323.85Z" transform="translate(-141.49 -280.6)"/><path class="cls-2" d="M241.72,319.27c3.41-4.46,7.06-6.49,10.83-6,5.81.69,9.48,7.07,10.58,9.27h-5.19c-1.4-2.11-3.54-4.52-5.93-4.8-2.08-.24-4.34,1.21-6.72,4.32-9.67,12.62-16.12,59.7-16.09,95.76,0,36.24,6.34,80.84,17.94,92.13,2,2,4.92,4.17,7.22,3.45,1.78-.56,3.1-2.75,3.94-4.81,1.52,0,3.12,0,4.79,0-1,3-3.14,7.73-7.37,9.07a7.65,7.65,0,0,1-2.32.36c-2.92,0-6.07-1.63-9.4-4.87-14.1-13.72-19.27-64.55-19.29-95.36C224.67,381.13,231.16,333.05,241.72,319.27Z" transform="translate(-141.49 -280.6)"/><path class="cls-2" d="M228.86,337.67l2.1-.22c-5.88,21.16-9.28,53.68-9.25,80.22,0,23.39,3,58.31,10.61,79.78h-1.41c-8.17-16.87-12.55-51.14-12.58-79.89C218.31,390.33,222.36,356.51,228.86,337.67Z" transform="translate(-141.49 -280.6)"/><path class="cls-3" d="M441.43,379.2c-5-20.44-13.13-32.95-24.22-37.16a25.74,25.74,0,0,0-17.38,0l-31.48-3.38c6.35,20,10,52.58,10,78.93,0,23.76-3.41,60-12.18,79.89H387.5a25.06,25.06,0,0,0,8.55,2.42,23.11,23.11,0,0,0,5.57-.16c13.86-2.06,23-15.61,24.68-18.31a122.94,122.94,0,0,0,14.92-33.68C447.15,426,447.22,403,441.43,379.2ZM438.51,447a119.64,119.64,0,0,1-14.61,32.94,46.19,46.19,0,0,1-10.79,11.77,53,53,0,0,0,15.25-23.91c-3.9,12-13.48,20.09-13.48,20.09C422,480.81,426,471.14,426,471.14a41.3,41.3,0,0,1-10.14,13.58c9.67-11.82,12.55-22.88,12.55-22.88-5,12.33-10.64,19.65-15.09,23.89,9.58-12.57,22.39-35.33,25-69.3,2.87-37.32-11.32-58.29-20-67.46h0a49.48,49.48,0,0,1,12,15.89A41.17,41.17,0,0,0,422,350.91s5.64,3.59,11.58,18.13c0,0-2.7-13.07-11.58-21.07,7.28,5.64,12.87,16.32,16.66,31.88C444.37,403.16,444.31,425.75,438.51,447Z" transform="translate(-141.49 -280.6)"/><path class="cls-2" d="M358.36,323.85c-3.41-4.25-7.06-6.19-10.83-5.76s-6.84,3.32-8.68,5.8a13.84,13.84,0,0,1,3.33,3c1.4-2,3.52-4.24,5.88-4.51,2.09-.23,4.35,1.16,6.73,4.12,9.66,12,16.12,56.86,16.08,91.2,0,34.52-6.33,77-17.93,87.76-2,1.88-4.92,4-7.22,3.28-1.85-.55-3.2-2.78-4-4.81a13.32,13.32,0,0,1-3.68,2.74c1.23,2.51,3.22,5.21,6.36,6.16a8.24,8.24,0,0,0,2.32.34c2.92,0,6.07-1.55,9.4-4.64,14.1-13.07,19.26-61.47,19.29-90.82C375.41,382.77,368.91,337,358.36,323.85Z" transform="translate(-141.49 -280.6)"/><path class="cls-2" d="M345.49,319.27c-3.41-4.46-7.06-6.49-10.83-6-5.81.69-9.48,7.07-10.59,9.27h5.2c1.39-2.11,3.53-4.52,5.92-4.8,2.09-.24,4.35,1.21,6.73,4.32,9.66,12.62,16.12,59.7,16.08,95.76,0,36.24-6.33,80.84-17.93,92.13-2,2-4.92,4.17-7.22,3.45-1.79-.56-3.1-2.75-4-4.81-1.51,0-3.11,0-4.79,0,1,3,3.14,7.73,7.38,9.07a7.6,7.6,0,0,0,2.32.36c2.92,0,6.07-1.63,9.4-4.87,14.1-13.72,19.26-64.55,19.29-95.36C362.54,381.13,356,333.05,345.49,319.27Z" transform="translate(-141.49 -280.6)"/><path class="cls-2" d="M358.35,337.67l-2.11-.22c5.89,21.16,9.29,53.68,9.26,80.22,0,23.39-3,58.31-10.61,79.78h1.41c8.17-16.87,12.54-51.14,12.57-79.89C368.9,390.33,364.84,356.51,358.35,337.67Z" transform="translate(-141.49 -280.6)"/><path class="cls-4" d="M346.93,343.93c-4.4-20.72-14.59-19.15-14.59-19.15H255.25s-10.19-1.57-14.58,19.15-7.54,40.84-6.59,69.39,2.51,58.38,7.84,76.59S257,505,272.06,505.29c9.39.2,17.19.15,21.74.09s12.35.11,21.73-.09c15.07-.31,24.8,2.83,30.14-15.38s6.91-48,7.85-76.59S351.32,364.65,346.93,343.93Z" transform="translate(-141.49 -280.6)"/><path class="cls-5" d="M304.05,471.85H272.52l.19-3c.09-1.59.16-3.22.23-4.79.15-3.46.31-7,.75-10.58,2.39-19.07,9.57-38.34,22.6-60.61,1.78-3,3.68-6.06,5.52-9l.61-1c-2.8-.66-5.67-1.34-8.49-2l-2.33-.54c-2.61-.6-5.07-1.17-7.58-1.51-3.89-.53-6.75.88-9,4.44-3.09,4.87-4,10.43-4.34,17.28,0,.42,0,.89,0,1.43v3.75h-22.1V355.44h16l.63,1.95a28.94,28.94,0,0,0,1.27,3.48,31.67,31.67,0,0,0,3.76-1.35,59.68,59.68,0,0,1,16-4.44,38.46,38.46,0,0,1,21.51,3.42,28.69,28.69,0,0,0,8.36,2.81c2.12.27,3.31-.15,3.94-3.2l.46-2.25H336.8l.17,2.64a47.68,47.68,0,0,1-2.23,17.81c-2.68,8.47-7.16,16.13-11.49,23.53l-1.62,2.78c-9.42,16.25-14.48,29.51-16.4,43-.63,4.4-.92,8.84-1.14,13-.13,2.3-.1,4.62-.07,7.07,0,1.12,0,2.25,0,3.4Zm-25.57-5.63h19.93v-.51c0-2.43-.06-4.95.07-7.44.23-4.27.53-8.86,1.19-13.48h0c2-14,7.44-28.31,17.11-45,.54-.93,1.08-1.86,1.63-2.79,4.36-7.48,8.49-14.53,11-22.4a42.48,42.48,0,0,0,2.07-13.12h-6.6c-1.58,4.08-4.88,6-9.5,5.41a34,34,0,0,1-10.11-3.34,33.09,33.09,0,0,0-18.46-2.89,54.48,54.48,0,0,0-14.47,4.06c-3.48,1.41-6,2.43-8.31,1.35-1.82-.85-2.7-2.6-3.54-5h-6.27v39.11h10.87c.34-6.19,1.06-13.33,5.2-19.85,3.43-5.41,8.45-7.82,14.52-7,2.76.37,5.47,1,8.09,1.6l2.28.53c3.11.69,6.26,1.44,9.3,2.17l1.67.39a7.73,7.73,0,0,1,1.3.46l.36.15,3.18,1.21-1.79,2.89-2.6,4.16c-1.9,3-3.69,5.87-5.42,8.83-12.64,21.6-19.59,40.18-21.88,58.47-.41,3.31-.56,6.62-.71,10.13C278.53,465,278.51,465.59,278.48,466.22Z" transform="translate(-141.49 -280.6)"/><path class="cls-5" d="M413.76,455.87l-17.93-1.69.12-1.75c.05-.94.1-1.9.14-2.82.1-2.05.2-4.16.46-6.23,1.4-11.17,5.54-22.19,13-34.68,1-1.7,2.11-3.39,3.16-5l.35-.55c-1.59-.54-3.22-1.1-4.82-1.62l-1.32-.44c-1.48-.5-2.88-1-4.31-1.31a4.36,4.36,0,0,0-5.13,2.15c-1.77,2.72-2.29,6-2.51,10a7.79,7.79,0,0,0,0,.85V415l-12.56-1.19.13-29.83,9.08.86L392,386a20.24,20.24,0,0,0,.72,2.13,15.65,15.65,0,0,0,2.14-.6,30.69,30.69,0,0,1,9.09-1.77A22.18,22.18,0,0,1,416.12,389a17.34,17.34,0,0,0,4.75,2.11c1.2.27,1.88.09,2.25-1.68l.26-1.31,9.3.88.09,1.56A28.61,28.61,0,0,1,431.45,401c-1.54,4.86-4.11,9.16-6.59,13.31l-.93,1.56c-5.4,9.12-8.31,16.7-9.44,24.57-.37,2.57-.54,5.18-.68,7.62-.08,1.36-.06,2.73-.05,4.19,0,.66,0,1.33,0,2Zm-14.53-4.7,11.33,1.07v-.3c0-1.45,0-2.94.06-4.4.14-2.52.32-5.22.71-7.92h0c1.17-8.2,4.3-16.37,9.84-25.73.31-.52.63-1,.94-1.57,2.5-4.19,4.86-8.14,6.3-12.67a25.43,25.43,0,0,0,1.21-7.66l-3.75-.35c-.91,2.33-2.79,3.28-5.42,2.69a20.35,20.35,0,0,1-5.73-2.52,19.17,19.17,0,0,0-10.49-2.7,28.48,28.48,0,0,0-8.24,1.63c-2,.65-3.41,1.12-4.72.35-1-.6-1.53-1.68-2-3.16l-3.57-.33-.1,23.16,6.18.58c.21-3.65.64-7.83,3-11.47a7.24,7.24,0,0,1,8.27-3.37c1.57.38,3.11.89,4.59,1.39l1.3.43c1.77.58,3.55,1.19,5.28,1.78l.95.33a4.58,4.58,0,0,1,.73.34l.21.11,1.8.89-1,1.61c-.5.78-1,1.56-1.49,2.33-1.09,1.68-2.11,3.28-3.1,4.93-7.24,12.11-11.24,22.74-12.59,33.45-.25,1.94-.34,3.9-.43,6Z" transform="translate(-141.49 -280.6)"/><path class="cls-5" d="M194.45,450.74l-18.11.41-.11-1.71c-.06-.91-.14-1.84-.21-2.74-.17-2-.34-4-.35-6.06,0-10.94,2.69-22.05,8.55-35,.79-1.75,1.66-3.51,2.51-5.2.09-.19.18-.38.28-.57l-5-1-1.37-.27c-1.54-.31-3-.6-4.47-.77a4.38,4.38,0,0,0-4.85,2.66c-1.42,2.83-1.51,6-1.23,9.94,0,.24.06.51.1.82s.05.34.08.53l.2,1.61-12.69.29-3.69-28.8,9.18-.21.5,1.1a18.21,18.21,0,0,0,1,2,16,16,0,0,0,2.06-.82,31.14,31.14,0,0,1,8.85-2.75,23.25,23.25,0,0,1,12.61,1.67,18,18,0,0,0,5,1.5c1.24.12,1.9-.13,2-1.88l.1-1.29,9.39-.22.29,1.5a26.62,26.62,0,0,1,0,10.22c-.92,4.88-2.93,9.32-4.88,13.61-.24.54-.48,1.07-.73,1.61-4.22,9.42-6.16,17.06-6.27,24.78,0,2.53.11,5.07.29,7.44.1,1.32.29,2.64.48,4l.27,1.95Zm-15.1-2.89,11.45-.26,0-.29c-.2-1.39-.4-2.83-.51-4.25-.18-2.45-.34-5.08-.3-7.73h0c.12-8,2.2-16.29,6.53-25.95l.74-1.62c2-4.33,3.81-8.42,4.66-12.95a23.54,23.54,0,0,0,.23-7.53l-3.79.08c-.61,2.36-2.37,3.49-5.06,3.22a21.49,21.49,0,0,1-6-1.77,19.84,19.84,0,0,0-10.81-1.41,28.63,28.63,0,0,0-8,2.51c-1.89.85-3.26,1.47-4.67.88a5,5,0,0,1-2.4-2.82l-3.61.08,2.87,22.37,6.24-.14c-.26-3.55-.36-7.64,1.54-11.42a7.24,7.24,0,0,1,7.82-4.19c1.62.18,3.22.5,4.77.81l1.34.27c1.85.35,3.71.74,5.51,1.12l1,.2a4.55,4.55,0,0,1,.78.24l.22.08,1.92.66-.82,1.67c-.39.82-.79,1.62-1.19,2.42-.87,1.75-1.69,3.4-2.47,5.12-5.67,12.51-8.31,23.23-8.28,33.72,0,1.9.16,3.79.33,5.8Z" transform="translate(-141.49 -280.6)"/><path class="cls-6" d="M247.8,496.39c-.18-3.86-.23-8.5-.23-8.5s0,4.24-.06,8C247.6,496.05,247.7,496.22,247.8,496.39Z" transform="translate(-141.49 -280.6)"/><path class="cls-6" d="M337.2,499.74a10.09,10.09,0,0,1-.07-2.49,18.78,18.78,0,0,1-.66,2.86,23.13,23.13,0,0,1-1-4.79c.2,3.59-.36,5-1,5.38a4.52,4.52,0,0,1-.15-2.13,8.36,8.36,0,0,1-.79,1.37c-.5-3.42-.61-16.72-.61-16.72s.14,17.9-.7,17.51-.92-7.3-1-9.23c.19,8.19-1.41,7.28-1.41,7.28l-.56-21.59s.56,21.59-1,21.65c-1.1.05-1.41-6.06-1.5-9.58,0,2.63-.43,6.42-2.27,6.06-2.13-.41-2.48-10.09-2.53-14.64v5.19c0,3.5-.38,11.06-2.52,11.38-1.84.28-2.23-2.65-2.27-4.69-.09,2.72-.41,7.45-1.5,7.41-1.54,0-1-16.75-1-16.75l-.56,16.71s-1.6.7-1.4-5.63a40.07,40.07,0,0,1-.59,6.41,2.91,2.91,0,0,1-.78-.6c-.39-3.41-.3-12.22-.3-12.22s-.08,7.4-.41,11.27a11.82,11.82,0,0,1-1-2.13s.38,2.75-.75,3.7a7.16,7.16,0,0,1-.37-3.48,19.52,19.52,0,0,1-.65,2.86,22.45,22.45,0,0,1-1-4.79c.19,3.59-.37,5-1,5.38a4.44,4.44,0,0,1-.16-2.13,8.74,8.74,0,0,1-.78,1.37c-.51-3.42-.61-16.72-.61-16.72s.14,17.9-.7,17.51-.93-7.3-1-9.23c.2,8.19-1.4,7.28-1.4,7.28l-.56-21.59s.56,21.59-1,21.65c-1.09.05-1.41-6.06-1.5-9.58,0,2.63-.43,6.42-2.27,6.06-1.61-.31-2.2-5.94-2.41-10.63v-4c0,.74,0,1.62-.06,2.56,0-.94,0-1.82-.05-2.56v4c-.21,4.69-.8,10.32-2.42,10.63-1.84.36-2.22-3.43-2.27-6.06-.09,3.52-.4,9.63-1.49,9.58-1.54-.06-1-21.65-1-21.65l-.56,21.59s-1.6.91-1.4-7.28c-.05,1.93-.25,8.89-1,9.23s-.7-17.51-.7-17.51-.11,13.3-.61,16.72a7.86,7.86,0,0,1-.78-1.37,4.44,4.44,0,0,1-.16,2.13c-.59-.39-1.16-1.79-1-5.38a23.13,23.13,0,0,1-1,4.79,18.78,18.78,0,0,1-.66-2.86,7.19,7.19,0,0,1-.36,3.48c-1.14-1-.75-3.7-.75-3.7a11.47,11.47,0,0,1-1,2.13c-.33-3.87-.41-11.27-.41-11.27s.09,8.81-.3,12.22a2.72,2.72,0,0,1-.77.6,39,39,0,0,1-.59-6.41c.2,6.33-1.41,5.63-1.41,5.63l-.55-16.71s.55,16.71-1,16.75c-1.1,0-1.41-4.69-1.5-7.41,0,2-.43,5-2.27,4.69-2.14-.32-2.48-7.88-2.52-11.38v-.61c0,.19,0,.39,0,.61v-1.75s0,.24,0,.61v-4.05c0,4.55-.39,14.23-2.52,14.64-1.84.36-2.22-3.43-2.27-6.06-.09,3.52-.4,9.63-1.5,9.58-1.53-.06-1-21.65-1-21.65l-.55,21.59s-1.61.91-1.41-7.28c0,1.93-.24,8.89-1,9.23s-.69-17.51-.69-17.51-.11,13.3-.62,16.72a8.74,8.74,0,0,1-.78-1.37,4.44,4.44,0,0,1-.16,2.13c-.59-.39-1.15-1.79-1-5.38a23.25,23.25,0,0,1-1,4.75c5.32,4.79,12.71,3.43,22.46,3.64,8.89.19,16.28.14,20.59.08s11.7.11,20.59-.08C324.36,503.49,331.85,504.91,337.2,499.74Z" transform="translate(-141.49 -280.6)"/><path class="cls-6" d="M243.94,483.22s0,1.23.07,3a.57.57,0,0,0,0,.14Z" transform="translate(-141.49 -280.6)"/><path class="cls-6" d="M338.66,498.07c-.27-.59-.42-1-.42-1a8.41,8.41,0,0,1,.05,1.52C338.42,498.4,338.54,498.24,338.66,498.07Z" transform="translate(-141.49 -280.6)"/><path class="cls-6" d="M339.37,497.06c.12-.18.23-.35.35-.55-.13-3.87-.08-8.62-.08-8.62S339.58,493.1,339.37,497.06Z" transform="translate(-141.49 -280.6)"/><path class="cls-6" d="M343.18,487.79c0-2.59.09-4.57.09-4.57l-.17,4.84C343.13,488,343.15,487.88,343.18,487.79Z" transform="translate(-141.49 -280.6)"/><path class="cls-6" d="M248.69,497.75l.21.28c0-.57.06-1,.06-1A7.51,7.51,0,0,1,248.69,497.75Z" transform="translate(-141.49 -280.6)"/><path class="cls-6" d="M250.71,500a19,19,0,0,1-.63-2.79,11.49,11.49,0,0,1,0,2.15C250.28,499.62,250.49,499.84,250.71,500Z" transform="translate(-141.49 -280.6)"/><path class="cls-6" d="M339.4,334.77c.19,3.85.24,8.5.24,8.5s0-4.24.06-8Z" transform="translate(-141.49 -280.6)"/><path class="cls-6" d="M250,331.42a10.09,10.09,0,0,1,.07,2.49,18.78,18.78,0,0,1,.66-2.86,22.88,22.88,0,0,1,1,4.79c-.19-3.59.37-5,1-5.38a4.44,4.44,0,0,1,.16,2.13,8.74,8.74,0,0,1,.78-1.37c.51,3.42.62,16.72.62,16.72s-.14-17.9.69-17.51.93,7.3,1,9.22c-.2-8.18,1.41-7.27,1.41-7.27l.55,21.59s-.55-21.59,1-21.65c1.1-.05,1.41,6.06,1.5,9.58.05-2.63.43-6.42,2.27-6.06,2.13.41,2.48,10.09,2.52,14.63v-4c0,.37,0,.61,0,.61v-1.76c0,.23,0,.43,0,.62v-.62c0-3.49.38-11,2.52-11.37,1.84-.28,2.22,2.65,2.27,4.69.09-2.72.4-7.45,1.5-7.41,1.53,0,1,16.75,1,16.75l.55-16.71s1.61-.7,1.41,5.63a39,39,0,0,1,.59-6.41,2.72,2.72,0,0,1,.77.6c.39,3.41.3,12.22.3,12.22s.08-7.4.41-11.27a11.47,11.47,0,0,1,1,2.13s-.39-2.75.75-3.71a7.24,7.24,0,0,1,.36,3.49,18.78,18.78,0,0,1,.66-2.86,23.13,23.13,0,0,1,1,4.79c-.2-3.59.37-5,1-5.38a4.44,4.44,0,0,1,.16,2.13,7.86,7.86,0,0,1,.78-1.37c.5,3.42.61,16.72.61,16.72s-.14-17.9.7-17.51.92,7.3,1,9.22c-.2-8.18,1.4-7.27,1.4-7.27l.56,21.59s-.56-21.59,1-21.65c1.09-.05,1.4,6.06,1.49,9.58.05-2.63.43-6.42,2.27-6.06,1.62.31,2.21,5.94,2.42,10.63v4c0-.74,0-1.62.05-2.56,0,.94,0,1.82.06,2.56v-4c.21-4.69.8-10.32,2.41-10.63,1.84-.36,2.22,3.43,2.27,6.06.09-3.52.41-9.63,1.5-9.58,1.54.06,1,21.65,1,21.65l.56-21.59s1.6-.91,1.4,7.27c0-1.92.25-8.88,1-9.22s.7,17.51.7,17.51.1-13.3.61-16.72a8.74,8.74,0,0,1,.78,1.37,4.44,4.44,0,0,1,.16-2.13c.59.39,1.15,1.79,1,5.38a22.45,22.45,0,0,1,1-4.79,19.52,19.52,0,0,1,.65,2.86,7.2,7.2,0,0,1,.37-3.49c1.13,1,.75,3.71.75,3.71a11.82,11.82,0,0,1,1-2.13c.33,3.87.41,11.27.41,11.27s-.09-8.81.3-12.22a2.91,2.91,0,0,1,.78-.6,40.07,40.07,0,0,1,.59,6.41c-.2-6.33,1.4-5.63,1.4-5.63l.56,16.71s-.56-16.71,1-16.75c1.09,0,1.41,4.69,1.5,7.41,0-2,.43-5,2.27-4.69,2.14.32,2.48,7.88,2.52,11.37v5.19c0-4.54.4-14.22,2.53-14.63,1.84-.36,2.22,3.43,2.27,6.06.09-3.52.4-9.63,1.5-9.58,1.53.06,1,21.65,1,21.65l.56-21.59s1.6-.91,1.41,7.27c0-1.92.24-8.88,1-9.22s.7,17.51.7,17.51.11-13.3.61-16.72a8.36,8.36,0,0,1,.79,1.37,4.52,4.52,0,0,1,.15-2.13c.6.39,1.16,1.79,1,5.38a22.81,22.81,0,0,1,1-4.75c-5.32-4.79-12.71-3.43-22.46-3.64-8.89-.19-16.28-.14-20.59-.08s-11.7-.11-20.59.08C262.85,327.67,255.35,326.25,250,331.42Z" transform="translate(-141.49 -280.6)"/><path class="cls-6" d="M343.27,347.94s0-1.23-.07-3a1,1,0,0,1,0-.14Z" transform="translate(-141.49 -280.6)"/><path class="cls-6" d="M248.55,333.09a9.72,9.72,0,0,1,.41,1,9.11,9.11,0,0,1,0-1.52C248.79,332.76,248.67,332.92,248.55,333.09Z" transform="translate(-141.49 -280.6)"/><path class="cls-6" d="M247.84,334.1c-.12.18-.24.35-.35.55.13,3.87.08,8.62.08,8.62S247.62,338.06,247.84,334.1Z" transform="translate(-141.49 -280.6)"/><path class="cls-6" d="M244,343.37c0,2.59-.09,4.57-.09,4.57l.16-4.84C244.08,343.19,244.05,343.28,244,343.37Z" transform="translate(-141.49 -280.6)"/><path class="cls-6" d="M338.52,333.41l-.22-.28a8,8,0,0,1-.06,1S338.34,333.83,338.52,333.41Z" transform="translate(-141.49 -280.6)"/><path class="cls-6" d="M336.49,331.12a18.3,18.3,0,0,1,.64,2.79,10.69,10.69,0,0,1,0-2.15C336.93,331.54,336.71,331.32,336.49,331.12Z" transform="translate(-141.49 -280.6)"/><path class="cls-7" d="M373.41,415.75l.21,0C373.39,415.28,373.29,415.24,373.41,415.75Z" transform="translate(-141.49 -280.6)"/><path class="cls-7" d="M386.88,415.75l.21,0C386.85,415.28,386.76,415.24,386.88,415.75Z" transform="translate(-141.49 -280.6)"/><path class="cls-6" d="M386,343.41,374,342a80.08,80.08,0,0,1,4.61,21.21,144.55,144.55,0,0,0-2.1-17.9s2.45,1.46,3.15,7.13a32.27,32.27,0,0,0-1.06-7.83s3.59,1.67,4.8,13.91c0,0,.85-5.44-1.08-13.87,0,0,4.6,3.19,6,15.41a85.1,85.1,0,0,0-1.23-10.44c-.28-1.65-.49-2.85-.64-3.73a68.18,68.18,0,0,1,2.8,13.38s-.11-8.78-1.76-14.62c-.14-.51-.23-.86-.27-1.11l-1.2-.14Z" transform="translate(-141.49 -280.6)"/><path class="cls-6" d="M375.79,357.72s-.1-8.78-1.75-14.63c-.15-.5-.23-.86-.28-1.1l-1.61-.19A71.38,71.38,0,0,1,375.79,357.72Z" transform="translate(-141.49 -280.6)"/><path class="cls-6" d="M412.45,362.88a85.1,85.1,0,0,0-1.23-10.44c-.17-1-.32-1.84-.44-2.55-2.4-1.75-4.62-3.21-6.41-4.34l-5-.57h0l-1.28-.14c-.22-.5-.31-.54-.21,0l-10.52-1.22a80,80,0,0,1,4.61,21.2,146.49,146.49,0,0,0-2.1-17.89s2.45,1.45,3.15,7.13a32.22,32.22,0,0,0-1.06-7.83s3.59,1.66,4.8,13.9c0,0,.84-5.43-1.08-13.86a8.44,8.44,0,0,1,1.75,2A65.8,65.8,0,0,1,400,360.53a85.42,85.42,0,0,0-.65-8.9,36.34,36.34,0,0,1,2.41,10s-.09-2.62-.65-6.77A80.88,80.88,0,0,1,402.74,366a144.28,144.28,0,0,0-2.1-17.89s2.45,1.45,3.16,7.13a32.53,32.53,0,0,0-1.07-7.83s3.59,1.66,4.8,13.9c0,0,.85-5.43-1.08-13.86C406.45,347.48,411.05,350.67,412.45,362.88Z" transform="translate(-141.49 -280.6)"/><path class="cls-6" d="M383.61,495.09l-12.09.09a80.44,80.44,0,0,0,6.86-20.58,144.33,144.33,0,0,1-4,17.56s2.6-1.18,3.91-6.75a32.26,32.26,0,0,1-1.9,7.67s3.75-1.27,6.27-13.3c0,0,.25,5.49-2.57,13.66,0,0,4.91-2.67,7.62-14.66A85.2,85.2,0,0,1,385.35,489l-1.05,3.63a66.94,66.94,0,0,0,4.23-13s-1,8.71-3.32,14.35c-.19.48-.32.83-.39,1.07Z" transform="translate(-141.49 -280.6)"/><path class="cls-6" d="M375,479.77s-1.05,8.71-3.32,14.35c-.19.48-.32.83-.39,1.06h-1.62A71.28,71.28,0,0,0,375,479.77Z" transform="translate(-141.49 -280.6)"/><path class="cls-6" d="M403.91,494.05a42.25,42.25,0,0,0,2.86-11c0-.19,0-.38.06-.55h0a22.66,22.66,0,0,0,.13-2.92c-2.52,12-6.27,13.3-6.27,13.3a32.26,32.26,0,0,0,1.9-7.67c-1.31,5.57-3.9,6.75-3.9,6.75a145.45,145.45,0,0,0,4-17.56,79.73,79.73,0,0,1-2.88,10.92c1-4.06,1.39-6.66,1.39-6.66a36.58,36.58,0,0,1-3.48,9.68,86.73,86.73,0,0,0,1.61-8.77,65.87,65.87,0,0,1-3.8,12,8.6,8.6,0,0,1-2,1.78c2.82-8.18,2.56-13.67,2.56-13.67-2.52,12-6.26,13.31-6.26,13.31a32.26,32.26,0,0,0,1.9-7.67c-1.31,5.57-3.91,6.75-3.91,6.75a144.72,144.72,0,0,0,4-17.57A79.92,79.92,0,0,1,385,495.07l10.59-.08c-.16.51-.06.47.22,0h1.28l5,0Z" transform="translate(-141.49 -280.6)"/><path class="cls-6" d="M200.56,343.41l12-1.4a80.21,80.21,0,0,0-4.6,21.21,144.55,144.55,0,0,1,2.1-17.9s-2.45,1.46-3.16,7.13a32.86,32.86,0,0,1,1.06-7.83s-3.58,1.67-4.79,13.91c0,0-.85-5.44,1.08-13.87,0,0-4.6,3.19-6,15.41a85.1,85.1,0,0,1,1.23-10.44c.28-1.65.49-2.85.64-3.73a67.46,67.46,0,0,0-2.8,13.38s.1-8.78,1.75-14.62c.15-.51.23-.86.28-1.11l1.2-.14Z" transform="translate(-141.49 -280.6)"/><path class="cls-6" d="M210.76,357.72s.1-8.78,1.75-14.63c.14-.5.23-.86.28-1.1l1.61-.19A71.38,71.38,0,0,0,210.76,357.72Z" transform="translate(-141.49 -280.6)"/><path class="cls-6" d="M174.1,362.88a85.1,85.1,0,0,1,1.23-10.44c.17-1,.31-1.84.44-2.55,2.4-1.75,4.62-3.21,6.4-4.34l5-.57h0l1.28-.14c.23-.5.32-.54.22,0l10.52-1.22a80,80,0,0,0-4.61,21.2,144.28,144.28,0,0,1,2.1-17.89s-2.45,1.45-3.15,7.13a32.22,32.22,0,0,1,1.06-7.83s-3.59,1.66-4.8,13.9c0,0-.85-5.43,1.08-13.86a8.44,8.44,0,0,0-1.75,2,65.8,65.8,0,0,0-2.48,12.33,85.42,85.42,0,0,1,.65-8.9,36.66,36.66,0,0,0-2.42,10s.1-2.62.66-6.77A80.88,80.88,0,0,0,183.81,366a144.28,144.28,0,0,1,2.1-17.89s-2.46,1.45-3.16,7.13a32.22,32.22,0,0,1,1.06-7.83s-3.59,1.66-4.79,13.9c0,0-.85-5.43,1.08-13.86C180.1,347.48,175.5,350.67,174.1,362.88Z" transform="translate(-141.49 -280.6)"/><path class="cls-6" d="M202.94,495.09l12.09.09a79.63,79.63,0,0,1-6.86-20.58,145.45,145.45,0,0,0,4,17.56s-2.59-1.18-3.9-6.75a32.26,32.26,0,0,0,1.9,7.67s-3.75-1.27-6.27-13.3c0,0-.26,5.49,2.57,13.66,0,0-4.92-2.67-7.62-14.66A85.2,85.2,0,0,0,201.2,489l1.05,3.63a66.94,66.94,0,0,1-4.23-13s1,8.71,3.32,14.35c.19.48.32.83.39,1.07Z" transform="translate(-141.49 -280.6)"/><path class="cls-6" d="M211.53,479.77s1.05,8.71,3.32,14.35c.2.48.33.83.4,1.06h1.62A71.63,71.63,0,0,1,211.53,479.77Z" transform="translate(-141.49 -280.6)"/><path class="cls-6" d="M182.64,494.05a42.25,42.25,0,0,1-2.86-11c0-.19,0-.38-.06-.55h0a22.66,22.66,0,0,1-.13-2.92c2.52,12,6.26,13.3,6.26,13.3a32.51,32.51,0,0,1-1.89-7.67c1.31,5.57,3.9,6.75,3.9,6.75a146.5,146.5,0,0,1-4-17.56,81.2,81.2,0,0,0,2.88,10.92c-1-4.06-1.38-6.66-1.38-6.66a36.23,36.23,0,0,0,3.48,9.68,86.73,86.73,0,0,1-1.61-8.77,65.09,65.09,0,0,0,3.8,12,8.6,8.6,0,0,0,2,1.78c-2.82-8.18-2.57-13.67-2.57-13.67,2.52,12,6.27,13.31,6.27,13.31a32.26,32.26,0,0,1-1.9-7.67c1.31,5.57,3.91,6.75,3.91,6.75a144.72,144.72,0,0,1-4-17.57,80.44,80.44,0,0,0,6.86,20.58L190.93,495c.15.51.06.47-.22,0h-1.29l-5,0Z" transform="translate(-141.49 -280.6)"/><path class="cls-6" d="M213.39,283.83H208V280.6H222v3.23h-5.45v16.95h-3.2Z" transform="translate(-141.49 -280.6)"/><path class="cls-6" d="M241.36,280.6h8.5c8.36,0,8,12.11,1.44,12.68l5.22,7.5h-3.75l-4.84-7.33h-3.35v7.33h-3.22Zm8.21,9.63c4.18,0,3.89-6.4.29-6.4h-5.28v6.4Z" transform="translate(-141.49 -280.6)"/><path class="cls-6" d="M276.58,280.6h3.11v20.18h-3.11Z" transform="translate(-141.49 -280.6)"/><path class="cls-6" d="M300.59,280.6h8.68c7.67,0,7.64,12.85,0,12.85h-5.45v7.33h-3.23Zm8.68,9.63c3.29,0,3.63-6.4,0-6.4h-5.45v6.4Z" transform="translate(-141.49 -280.6)"/><path class="cls-6" d="M334.32,280.6h3.23v16.95h9v3.23H334.32Z" transform="translate(-141.49 -280.6)"/><path class="cls-6" d="M365.88,280.6h13.38v3.23H369.11v5.24h7.35v3.23h-7.35v5.25h10.15v3.23h-13.4Z" transform="translate(-141.49 -280.6)"/><path class="cls-6" d="M223,530.15h8.56a5.87,5.87,0,0,1,5.85,5.8v8.59a5.86,5.86,0,0,1-5.85,5.79H223Zm8.56,17a2.63,2.63,0,0,0,2.62-2.62V536a2.63,2.63,0,0,0-2.62-2.62h-5.33V547.1Z" transform="translate(-141.49 -280.6)"/><path class="cls-6" d="M257,544.71l0-14.56h3.23l0,14.56a2.63,2.63,0,0,0,2.63,2.62h2.71a2.63,2.63,0,0,0,2.62-2.62V530.15h3.23v14.59c0,3.23-1.91,5.82-5.85,5.82h-2.71A5.82,5.82,0,0,1,257,544.71Z" transform="translate(-141.49 -280.6)"/><path class="cls-6" d="M291.56,530.15h7.58a5.83,5.83,0,0,1,4.49,9.57c4.44,3.84,2.19,10.61-3.4,10.61h-8.65Zm7.58,8.48c3.31,0,3.63-5.25,0-5.25h-4.33v5.25Zm1.09,8.47c3.32,0,3.55-5.24,0-5.24h-5.42v5.24Z" transform="translate(-141.49 -280.6)"/><path class="cls-6" d="M323.87,550.33l8-20.18h2.22L342,550.33h-3.43l-1.7-4.41H329l-1.64,4.41Zm12.05-7.67-3-7.66-3,7.66Z" transform="translate(-141.49 -280.6)"/><path class="cls-6" d="M361.14,530.15h3.12v20.18h-3.12Z" transform="translate(-141.49 -280.6)"/></svg>